<svg version="1.0" xmlns="http://www.w3.org/2000/svg" viewBox="0 0 2511 397"><g transform="translate(0.000000,397.000000) scale(0.100000,-0.100000)"><path d="M4010 3649 c-662 -74 -1165 -461 -1360 -1046 -77 -234 -106 -450 -97
-743 14 -498 156 -861 451 -1155 258 -258 573 -400 1006 -457 121 -15 469 -15
580 1 355 50 609 157 850 357 180 149 308 317 381 499 31 78 79 237 79 262 0
15 -399 18 -657 6 -141 -6 -142 -6 -148 -32 -20 -77 -88 -192 -160 -269 -166
-177 -345 -245 -640 -245 -128 0 -164 4 -246 26 -287 76 -498 268 -599 546
-59 160 -80 304 -80 534 1 397 92 683 283 883 111 117 212 182 350 224 264 79
631 38 829 -93 85 -57 169 -152 218 -249 l44 -85 275 -6 c363 -9 541 -9 541 1
0 4 -9 47 -20 96 -37 166 -164 371 -330 530 -244 233 -548 362 -970 410 -145
17 -451 20 -580 5z"></path><path d="M12885 3644 c-242 -33 -530 -106 -719 -183 -55 -23 -101 -42 -102
-44 -2 -1 -44 -158 -94 -347 -50 -190 -97 -366 -105 -392 l-14 -47 62 41 c85
54 321 169 440 213 124 45 305 97 444 127 93 19 137 23 313 23 182 0 214 -3
288 -23 209 -57 327 -165 386 -352 22 -70 46 -225 46 -300 l0 -30 -352 0
c-465 0 -664 -18 -908 -80 -466 -119 -733 -362 -832 -757 -19 -74 -22 -117
-23 -268 0 -158 3 -190 23 -258 92 -319 321 -544 673 -661 433 -144 895 -60
1217 221 l62 55 0 310 0 311 -51 -66 c-100 -129 -236 -217 -398 -258 -73 -18
-105 -21 -225 -16 -160 5 -244 26 -331 82 -116 74 -168 173 -167 320 1 301
203 478 615 540 58 8 194 17 303 20 110 3 259 7 332 10 l132 5 0 -588 c0 -323
3 -665 7 -760 l6 -172 384 0 384 0 -5 43 c-7 49 -40 354 -56 507 -7 58 -15
456 -20 885 -10 873 -13 923 -86 1158 -135 437 -443 663 -994 733 -143 18
-497 17 -635 -2z"></path><path d="M230 1945 l0 -1635 1135 0 1135 0 0 375 0 375 -705 0 -705 0 0 1260
0 1260 -430 0 -430 0 0 -1635z"></path><path d="M6720 3578 c0 -2 231 -734 513 -1628 l513 -1625 458 0 459 0 332
1248 c183 686 334 1249 336 1251 2 3 148 -537 323 -1197 176 -661 326 -1226
334 -1254 l15 -53 498 0 498 0 16 53 c27 89 903 3150 910 3180 l7 27 -407 -2
-408 -3 -312 -1170 c-171 -643 -315 -1183 -319 -1199 -4 -15 -9 -26 -12 -23
-4 3 -153 543 -333 1199 l-327 1193 -475 3 -475 2 -309 -1192 c-169 -656 -311
-1196 -315 -1201 -7 -8 -50 146 -457 1610 l-218 783 -422 0 c-233 0 -423 -1
-423 -2z"></path><path d="M14970 1950 l0 -1630 425 0 425 0 0 1630 0 1630 -425 0 -425 0 0
-1630z"></path><path d="M16240 1950 l0 -1630 425 0 425 0 1 543 c1 298 4 649 8 780 l6 238
531 -778 532 -778 541 -3 541 -2 -347 461 c-192 253 -495 656 -675 894 l-327
434 591 713 c325 392 600 723 611 736 l20 22 -504 -1 -504 0 -510 -654 -510
-655 -3 655 -2 655 -425 0 -425 0 0 -1630z"></path><path d="M19410 1950 l0 -1630 425 0 425 0 0 1630 0 1630 -425 0 -425 0 0
-1630z"></path><path d="M20640 1950 l0 -1630 424 0 424 0 6 23 c3 12 6 285 7 607 1 322 4
662 8 757 l6 172 531 -777 531 -777 542 -3 542 -2 -139 182 c-76 101 -380 503
-675 895 l-537 712 467 563 c257 310 531 641 610 736 l143 172 -502 0 -503 -1
-510 -654 c-280 -360 -513 -655 -517 -655 -5 0 -8 295 -8 655 l0 655 -425 0
-425 0 0 -1630z"></path><path d="M23860 1950 l0 -1630 425 0 425 0 0 1630 0 1630 -425 0 -425 0 0
-1630z"></path></g></svg>