<svg xmlns="http://www.w3.org/2000/svg" viewBox="0 0 214 20">
    <path d="M34.246 0l.306.594 9.613 19.01h-2.744L33.758 4.27 22.331 19.644l-.248.356-.25-.356L10.509 4.22 2.794 19.603H0L9.635.548 9.925 0l.382.546 11.725 15.986L33.812.596 34.246 0zm66.738.31c4.578 0 8.285.681 11.335 1.62V3.56c-3.705-1.254-7.582-1.896-11.484-1.902-8.98 0-15.966 3.343-15.966 8.477s7.135 8.401 16.115 8.401c3.848-.01 7.671-.626 11.335-1.827v1.514c-3.676 1.127-7.497 1.686-11.335 1.66-10.568 0-19.152-3.784-19.152-9.721 0-5.936 8.725-9.851 19.152-9.851zM63.286 0l.249.281 16.018 19.315-2.996.002-4.74-5.807H54.653l-4.683 5.807h-2.95L63.028.283 63.286 0zm60.188.594V9.28h21.003V.594h2.797v19.004h-2.797v-9.022h-21.003v9.022h-2.785V.594h2.785zM179.16.591l-18.003 9.234 18.709 9.773h-3.692l-17.712-9.385v9.385h-2.786V.594h2.786v8.837l17.113-8.84h3.585zM197.733 0l.249.283L214 19.598h-2.996l-4.74-5.807H189.1l-4.688 5.807h-2.945L197.486.283l.247-.283zM63.235 3.239l-7.533 9.307h15.067l-7.534-9.307zm134.447 0l-7.533 9.307h15.067l-7.534-9.307z"/>
</svg>
