<?xml version="1.0" standalone="yes"?>
<svg xmlns="http://www.w3.org/2000/svg" width="180" height="44">
<path style="fill:#fafdfe; stroke:none;" d="M0 0L0 44L180 44L180 0L0 0z"/>
<path style="fill:#9fb1f1; stroke:none;" d="M65 3L65 14L66 14L65 3z"/>
<path style="fill:#687dd2; stroke:none;" d="M66 3L66 4L72 4L66 3z"/>
<path style="fill:#9fb1f1; stroke:none;" d="M72 3L72 40L64 39L64 40L71.9722 39.3958L73 30L72 3z"/>
<path style="fill:#687dd2; stroke:none;" d="M76 3L76 4L82 4L82 10C84.0958 4.82363 80.7365 3.15554 76 3z"/>
<path style="fill:#9fb1f1; stroke:none;" d="M82 3L83 4L82 3z"/>
<path style="fill:#687dd2; stroke:none;" d="M108 3L108 4L114 4L114 40L115 40L115 3L108 3z"/>
<path style="fill:#1936a9; stroke:none;" d="M66 4L66 15C54.1554 10.6831 43.6145 15.5839 43 29L44 29C45.1558 15.8624 54.7562 13.0265 66 16L66 4z"/>
<path style="fill:#183fd4; stroke:none;" d="M67 4L66 16C56.373 12.791 40.1862 14.745 44 30C44.9924 33.9695 48.5541 35.7837 48 38L71 39C71 31.6815 74.7804 6.58231 67 4z"/>
<path style="fill:#1936a9; stroke:none;" d="M70 4L71 39L66 39L66 40L72 40C72 32.3477 75.7634 9.03628 70 4M76 4L76 10L82 10L82 4L81 4L81 9L77 9L76 4z"/>
<path style="fill:#183fd4; stroke:none;" d="M77 4L77 9L81 9L81 4L77 4z"/>
<path style="fill:#1936a9; stroke:none;" d="M78.6667 4.33333L79.3333 4.66667L78.6667 4.33333M108 4L108 14L109 14L111 5L108 4z"/>
<path style="fill:#183fd4; stroke:none;" d="M108 15C100.377 13.1987 94.8895 14.6427 88 18L86 22L94 40L106 40L106 38L113 39L112 4L108 15z"/>
<path style="fill:#1936a9; stroke:none;" d="M112 4L113 17L114 17L112 4z"/>
<path style="fill:#9fb1f1; stroke:none;" d="M81 10L82 11L81 10M22 12L22 13L25 13L22 12z"/>
<path style="fill:#687dd2; stroke:none;" d="M25 12L26 13L25 12z"/>
<path style="fill:#9fb1f1; stroke:none;" d="M26 12L26 13L29 13L26 12M34 12L34 13L40 13L34 12M54.6667 12.3333L55.3333 12.6667L54.6667 12.3333z"/>
<path style="fill:#687dd2; stroke:none;" d="M56 12L57 13L56 12z"/>
<path style="fill:#9fb1f1; stroke:none;" d="M57 12L57 13L61 13L57 12M76 12L76 13L82 13L76 12M96 12L96 13L99 13L96 12z"/>
<path style="fill:#687dd2; stroke:none;" d="M99.6667 12.3333L100.333 12.6667L99.6667 12.3333z"/>
<path style="fill:#9fb1f1; stroke:none;" d="M101.667 12.3333L102.333 12.6667L101.667 12.3333M128 12L128 13L131 13L128 12z"/>
<path style="fill:#687dd2; stroke:none;" d="M131.667 12.3333L132.333 12.6667L131.667 12.3333z"/>
<path style="fill:#9fb1f1; stroke:none;" d="M133.667 12.3333L134.333 12.6667L133.667 12.3333M139 13L139 14L146 13L146 40L138 39C149.525 47.7199 153.297 8.92844 139 13M157 12L157 13L160 13L157 12z"/>
<path style="fill:#687dd2; stroke:none;" d="M160.667 12.3333L161.333 12.6667L160.667 12.3333z"/>
<path style="fill:#9fb1f1; stroke:none;" d="M162 12L162 13L165 13L162 12M19 13L20 14L19 13z"/>
<path style="fill:#687dd2; stroke:none;" d="M20 13L21 14L20 13z"/>
<path style="fill:#1936a9; stroke:none;" d="M13 21C18.9175 16.5389 22.3598 14.0219 30 14C23.1103 11.11 16.3112 14.7671 13 21z"/>
<path style="fill:#183fd4; stroke:none;" d="M12 21C14.486 31.4418 14.9437 38.1272 27 41C27 37.0299 35.9017 38.9185 39 39C39 32.8404 42.589 10.6204 32 16L33 14L31 13L12 21z"/>
<path style="fill:#9fb1f1; stroke:none;" d="M31 13L32 14L31 13z"/>
<path style="fill:#1936a9; stroke:none;" d="M34 13L34 14C42.2104 16.4924 39 31.9927 39 39L34 38L40 40L40 13L34 13z"/>
<path style="fill:#687dd2; stroke:none;" d="M40 13L40 40L41 40L40 13z"/>
<path style="fill:#9fb1f1; stroke:none;" d="M51 13L52 14L51 13z"/>
<path style="fill:#183fd4; stroke:none;" d="M52 13L53 14L52 13z"/>
<path style="fill:#687dd2; stroke:none;" d="M62 13L63 14L62 13z"/>
<path style="fill:#9fb1f1; stroke:none;" d="M63 13L64 14L63 13z"/>
<path style="fill:#1936a9; stroke:none;" d="M76 13L76 40L82 40L82 13L76 13z"/>
<path style="fill:#687dd2; stroke:none;" d="M82 13L82 40L83 40L82 13z"/>
<path style="fill:#9fb1f1; stroke:none;" d="M93 13L94 14L93 13z"/>
<path style="fill:#687dd2; stroke:none;" d="M94 13L95 14L94 13z"/>
<path style="fill:#1936a9; stroke:none;" d="M95 13L95 14L106 15L95 13z"/>
<path style="fill:#9fb1f1; stroke:none;" d="M105 13L106 14L105 13M125 13L126 14L125 13z"/>
<path style="fill:#687dd2; stroke:none;" d="M126 13L127 14L126 13z"/>
<path style="fill:#1936a9; stroke:none;" d="M127 13L127 14L138 15L127 13z"/>
<path style="fill:#687dd2; stroke:none;" d="M136 13L137 14L136 13z"/>
<path style="fill:#9fb1f1; stroke:none;" d="M137 13L138 14L137 13z"/>
<path style="fill:#1936a9; stroke:none;" d="M140 15L145 14L145 39L140 39L140 40L146 40L146 13L140 15z"/>
<path style="fill:#9fb1f1; stroke:none;" d="M154 13L155 14L154 13z"/>
<path style="fill:#687dd2; stroke:none;" d="M155 13L156 14L155 13z"/>
<path style="fill:#1936a9; stroke:none;" d="M160 29L160 28C143.283 24.9634 159.128 5.83151 171 20L163 17L163 18L172 21C165.793 -0.913246 136.167 26.8362 160 29z"/>
<path style="fill:#687dd2; stroke:none;" d="M166 13L167 14L166 13z"/>
<path style="fill:#9fb1f1; stroke:none;" d="M167 13L168 14L167 13M17 14L18 15L17 14z"/>
<path style="fill:#687dd2; stroke:none;" d="M18 14L19 15L18 14z"/>
<path style="fill:#1936a9; stroke:none;" d="M31 14L32 15L31 14z"/>
<path style="fill:#687dd2; stroke:none;" d="M33 14L34 15L33 14z"/>
<path style="fill:#9fb1f1; stroke:none;" d="M49 14L50 15L49 14z"/>
<path style="fill:#687dd2; stroke:none;" d="M50 14L51 15L50 14M64.6667 14.3333L65.3333 14.6667L64.6667 14.3333z"/>
<path style="fill:#183fd4; stroke:none;" d="M77 14L77 39L81 39L81 14L77 14z"/>
<path style="fill:#687dd2; stroke:none;" d="M92 14L93 15L92 14z"/>
<path style="fill:#1936a9; stroke:none;" d="M89 18L95 15L89 18z"/>
<path style="fill:#687dd2; stroke:none;" d="M107 14L108 15L107 14z"/>
<path style="fill:#9fb1f1; stroke:none;" d="M123 14L124 15L123 14z"/>
<path style="fill:#183fd4; stroke:none;" d="M124 14L118.333 24L120 36L122 38L125 37C129.409 42.6458 138.687 38.9227 145 39L145 14L124 14z"/>
<path style="fill:#1936a9; stroke:none;" d="M125 14L126 15L125 14z"/>
<path style="fill:#687dd2; stroke:none;" d="M138.667 14.3333L139.333 14.6667L138.667 14.3333M153 14L154 15L153 14z"/>
<path style="fill:#183fd4; stroke:none;" d="M160 30C165.071 29.1669 169.417 34.3632 162.965 36.338C158.854 37.5965 153.507 33.1457 149 33L149 34L160 39C163.707 43.0111 173.932 36.3784 173.211 31.1204C172.518 26.0614 165.227 25.5427 162 23C157.913 22.8325 153.949 17.9669 160.035 17.0463C163.602 16.5066 167.432 19.4892 171 20C166.438 12.0042 147.085 12.5742 151.758 23.7863C153.118 27.0505 157.471 27.8956 160 30z"/>
<path style="fill:#687dd2; stroke:none;" d="M168 14L169 15L168 14z"/>
<path style="fill:#9fb1f1; stroke:none;" d="M16 15L17 16L16 15z"/>
<path style="fill:#1936a9; stroke:none;" d="M32.6667 15.3333L33.3333 15.6667L32.6667 15.3333z"/>
<path style="fill:#687dd2; stroke:none;" d="M48 15L49 16L48 15z"/>
<path style="fill:#9fb1f1; stroke:none;" d="M90 15L91 16L90 15z"/>
<path style="fill:#1936a9; stroke:none;" d="M106 15L107 16L106 15z"/>
<path style="fill:#687dd2; stroke:none;" d="M122 15L120 18L122 15z"/>
<path style="fill:#1936a9; stroke:none;" d="M123.667 15.3333L124.333 15.6667L123.667 15.3333z"/>
<path style="fill:#183fd4; stroke:none;" d="M152 15L153 16L152 15z"/>
<path style="fill:#687dd2; stroke:none;" d="M169 15L170 16L169 15z"/>
<path style="fill:#9fb1f1; stroke:none;" d="M15 16L16 17L15 16z"/>
<path style="fill:#687dd2; stroke:none;" d="M47 16L48 17L47 16z"/>
<path style="fill:#9fb1f1; stroke:none;" d="M89 16L90 17L89 16z"/>
<path style="fill:#1936a9; stroke:none;" d="M122 16L123 17L122 16z"/>
<path style="fill:#687dd2; stroke:none;" d="M151 16L152 17L151 16z"/>
<path style="fill:#1936a9; stroke:none;" d="M155 20L162 17L155 20z"/>
<path style="fill:#687dd2; stroke:none;" d="M170 16L171 17L170 16z"/>
<path style="fill:#9fb1f1; stroke:none;" d="M14 17L15 18L14 17z"/>
<path style="fill:#1936a9; stroke:none;" d="M17 25L18 25L27 18C21.8086 16.5597 18.4151 20.3764 17 25M28 18L34 23L30 17L28 18z"/>
<path style="fill:#687dd2; stroke:none;" d="M46 17L47 18L46 17z"/>
<path style="fill:#1936a9; stroke:none;" d="M57.6667 17.3333L58.3333 17.6667L57.6667 17.3333z"/>
<path style="fill:#9fb1f1; stroke:none;" d="M88 17L89 18L88 17z"/>
<path style="fill:#1936a9; stroke:none;" d="M97 35L97 34C86.5468 25.7138 96.8348 16.8879 107 21C96.701 10.7236 84.0653 28.6187 97 35M121 17L122 18L121 17M122 26L123 26L133 18C127.505 16.4983 123.993 21.5099 122 26z"/>
<path style="fill:#9fb1f1; stroke:none;" d="M150 17L151 18L150 17z"/>
<path style="fill:#687dd2; stroke:none;" d="M159 17L159 18L163 18L159 17M171 17L172 18L171 17z"/>
<path style="fill:#9fb1f1; stroke:none;" d="M13 18L14 19L13 18z"/>
<path style="fill:#687dd2; stroke:none;" d="M24 18L24 19L27 19L24 18z"/>
<path style="fill:#9fb1f1; stroke:none;" d="M45 18L46 19L45 18z"/>
<path style="fill:#1936a9; stroke:none;" d="M51 18L52 19L51 18M54.6667 18.3333L55.3333 18.6667L54.6667 18.3333z"/>
<path style="fill:#687dd2; stroke:none;" d="M56 18L56 19L59 19L56 18z"/>
<path style="fill:#1936a9; stroke:none;" d="M60 18L60 19L66 29L67 29C66.7222 23.9155 65.116 19.6609 60 18z"/>
<path style="fill:#687dd2; stroke:none;" d="M98 18L98 19L102 19L98 18z"/>
<path style="fill:#1936a9; stroke:none;" d="M113.333 18.6667L113.667 19.3333L113.333 18.6667z"/>
<path style="fill:#9fb1f1; stroke:none;" d="M119 18L120 19L119 18z"/>
<path style="fill:#1936a9; stroke:none;" d="M120 18C116.782 24.1396 116.782 28.8604 120 35L121 35L120 18z"/>
<path style="fill:#687dd2; stroke:none;" d="M130 18L130 19L133 19L130 18z"/>
<path style="fill:#1936a9; stroke:none;" d="M134 18L134 19L139 22L134 18z"/>
<path style="fill:#183fd4; stroke:none;" d="M150 18L151 19L150 18z"/>
<path style="fill:#687dd2; stroke:none;" d="M157 18L158 19L157 18z"/>
<path style="fill:#9fb1f1; stroke:none;" d="M164 18L165 19L164 18z"/>
<path style="fill:#183fd4; stroke:none;" d="M13 19L14 20L13 19z"/>
<path style="fill:#9fb1f1; stroke:none;" d="M22 19L23 20L22 19z"/>
<path style="fill:#fafdfe; stroke:none;" d="M23.044 19.7577C13.7915 23.2357 19.8907 37.01 28.8951 33.2569C37.7944 29.5477 31.7101 16.5001 23.044 19.7577z"/>
<path style="fill:#9fb1f1; stroke:none;" d="M28 19L29 20L28 19z"/>
<path style="fill:#687dd2; stroke:none;" d="M29 19L30 20L29 19z"/>
<path style="fill:#1936a9; stroke:none;" d="M33 19L34 20L33 19M52 19C42.5738 30.8105 58.7232 42.581 66 30L65 30C60.4289 34.9122 52.1659 36.3646 49.8511 27.9961C48.9569 24.7635 51.5043 22.0128 52 19z"/>
<path style="fill:#687dd2; stroke:none;" d="M53 19L50 23L53 19z"/>
<path style="fill:#9fb1f1; stroke:none;" d="M54 19L55 20L54 19z"/>
<path style="fill:#fafdfe; stroke:none;" d="M55.044 19.7577C45.7036 23.2516 51.8194 37.2056 60.8912 33.1412C69.0005 29.5081 63.3317 16.6577 55.044 19.7577z"/>
<path style="fill:#9fb1f1; stroke:none;" d="M60 19L61 20L60 19z"/>
<path style="fill:#687dd2; stroke:none;" d="M61 19L62 20L61 19M87 19L88 20L87 19z"/>
<path style="fill:#1936a9; stroke:none;" d="M88 19L89 20L88 19z"/>
<path style="fill:#687dd2; stroke:none;" d="M96 19L97 20L96 19z"/>
<path style="fill:#fafdfe; stroke:none;" d="M97.1049 19.8627C88.2396 23.6826 94.0635 36.789 102.945 33.2539C111.865 29.7037 105.722 16.1498 97.1049 19.8627z"/>
<path style="fill:#687dd2; stroke:none;" d="M103 19L104 20L103 19z"/>
<path style="fill:#9fb1f1; stroke:none;" d="M128 19L129 20L128 19z"/>
<path style="fill:#fafdfe; stroke:none;" d="M129.044 19.7577C120.354 23.0082 125.267 36.5803 133.981 33.392C142.863 30.1421 137.84 16.4674 129.044 19.7577z"/>
<path style="fill:#9fb1f1; stroke:none;" d="M134 19L135 20L134 19z"/>
<path style="fill:#687dd2; stroke:none;" d="M135 19L136 20L135 19M156.333 19.6667L156.667 20.3333L156.333 19.6667M165 19L166 20L165 19z"/>
<path style="fill:#9fb1f1; stroke:none;" d="M172 19L173 20L172 19M12 20L13 21L12 20z"/>
<path style="fill:#687dd2; stroke:none;" d="M20 20L21 21L20 20z"/>
<path style="fill:#9fb1f1; stroke:none;" d="M30 20L31 21L30 20z"/>
<path style="fill:#687dd2; stroke:none;" d="M44 20L45 21L44 20z"/>
<path style="fill:#9fb1f1; stroke:none;" d="M62 20L63 21L62 20z"/>
<path style="fill:#1936a9; stroke:none;" d="M87.3333 20.6667L87.6667 21.3333L87.3333 20.6667z"/>
<path style="fill:#9fb1f1; stroke:none;" d="M95 20L96 21L95 20M104 20L105 21L104 20z"/>
<path style="fill:#183fd4; stroke:none;" d="M105 20L106 21L105 20z"/>
<path style="fill:#687dd2; stroke:none;" d="M118 20L119 21L118 20M126 20L127 21L126 20z"/>
<path style="fill:#9fb1f1; stroke:none;" d="M136 20L137 21L136 20M149 20L149 23L150 23L149 20M165 20L166 21L165 20z"/>
<path style="fill:#687dd2; stroke:none;" d="M172 20L173 21L172 20z"/>
<path style="fill:#183fd4; stroke:none;" d="M19 21L20 22L19 21z"/>
<path style="fill:#9fb1f1; stroke:none;" d="M63 21L64 22L63 21z"/>
<path style="fill:#687dd2; stroke:none;" d="M86 21L87 22L86 21z"/>
<path style="fill:#1936a9; stroke:none;" d="M113 21L113 39L108 39L108 40L114 40L113 21z"/>
<path style="fill:#687dd2; stroke:none;" d="M125 21L126 22L125 21z"/>
<path style="fill:#9fb1f1; stroke:none;" d="M137 21L138 22L137 21z"/>
<path style="fill:#1936a9; stroke:none;" d="M156 21L161 24L161 23L156 21z"/>
<path style="fill:#9fb1f1; stroke:none;" d="M157 21L158 22L157 21M166 21L166 22L173 22L166 21z"/>
<path style="fill:#1936a9; stroke:none;" d="M12 22C12.001 30.8431 13.689 38.8517 24 40L24 39C13.7611 36.9328 15.1543 29.5142 12 22z"/>
<path style="fill:#9fb1f1; stroke:none;" d="M32 22L33 23L32 22M43 22L44 23L43 22z"/>
<path style="fill:#687dd2; stroke:none;" d="M64 22L65 23L64 22z"/>
<path style="fill:#9fb1f1; stroke:none;" d="M93 22L94 23L93 22M106 22L107 23L106 22z"/>
<path style="fill:#1936a9; stroke:none;" d="M107 22C108.214 27.2993 107.314 30.5803 103 34L103 35C108.177 32.4458 110.745 26.9489 107 22z"/>
<path style="fill:#9fb1f1; stroke:none;" d="M117 22L118 23L117 22z"/>
<path style="fill:#687dd2; stroke:none;" d="M138 22L139 23L138 22M158 22L159 23L158 22z"/>
<path style="fill:#9fb1f1; stroke:none;" d="M159.667 22.3333L160.333 22.6667L159.667 22.3333M11 23L12 24L11 23z"/>
<path style="fill:#687dd2; stroke:none;" d="M18 23L19 24L18 23M33 23L34 24L33 23M43 23L44 24L43 23z"/>
<path style="fill:#9fb1f1; stroke:none;" d="M50 23L51 24L50 23M85 23L85 30L86 30L85 23z"/>
<path style="fill:#1936a9; stroke:none;" d="M86 23L86 30L87 30L86 23z"/>
<path style="fill:#687dd2; stroke:none;" d="M92 23L93 24L92 23M107 23L108 24L107 23M117 23L118 24L117 23z"/>
<path style="fill:#9fb1f1; stroke:none;" d="M124 23L125 24L124 23z"/>
<path style="fill:#1936a9; stroke:none;" d="M139 23L140 28L141 28L139 23z"/>
<path style="fill:#687dd2; stroke:none;" d="M162.667 23.3333L163.333 23.6667L162.667 23.3333z"/>
<path style="fill:#9fb1f1; stroke:none;" d="M164.667 23.3333L165.333 23.6667L164.667 23.3333z"/>
<path style="fill:#687dd2; stroke:none;" d="M11 24L11 29L12 29L11 24z"/>
<path style="fill:#9fb1f1; stroke:none;" d="M33 24L34 25L33 24z"/>
<path style="fill:#1936a9; stroke:none;" d="M34 24L31 34C34.1654 31.2066 35.6612 28.0839 34 24z"/>
<path style="fill:#687dd2; stroke:none;" d="M49.3333 24.6667L49.6667 25.3333L49.3333 24.6667M65 24L66 25L65 24z"/>
<path style="fill:#9fb1f1; stroke:none;" d="M92 24L93 25L92 24M107 24L108 25L107 24z"/>
<path style="fill:#183fd4; stroke:none;" d="M139 24L140 25L139 24z"/>
<path style="fill:#687dd2; stroke:none;" d="M150 24L151 25L150 24z"/>
<path style="fill:#1936a9; stroke:none;" d="M162 24L162 25L172 30C172.112 24.9227 166.078 24.1895 162 24z"/>
<path style="fill:#687dd2; stroke:none;" d="M167 24L168 25L167 24z"/>
<path style="fill:#9fb1f1; stroke:none;" d="M168 24L169 25L168 24M65 25L65 28L66 28L65 25z"/>
<path style="fill:#183fd4; stroke:none;" d="M123 25L124 26L123 25z"/>
<path style="fill:#687dd2; stroke:none;" d="M139 25L140 26L139 25z"/>
<path style="fill:#9fb1f1; stroke:none;" d="M150 25L151 26L150 25M170 25L171 26L170 25M49.3333 26.6667L49.6667 27.3333L49.3333 26.6667z"/>
<path style="fill:#687dd2; stroke:none;" d="M123 26L124 27L123 26z"/>
<path style="fill:#9fb1f1; stroke:none;" d="M139.333 26.6667L139.667 27.3333L139.333 26.6667M151 26L152 27L151 26z"/>
<path style="fill:#687dd2; stroke:none;" d="M171 26L172 27L171 26z"/>
<path style="fill:#9fb1f1; stroke:none;" d="M152 27L153 28L152 27z"/>
<path style="fill:#687dd2; stroke:none;" d="M172 27L173 28L172 27z"/>
<path style="fill:#9fb1f1; stroke:none;" d="M33 28L34 29L33 28z"/>
<path style="fill:#687dd2; stroke:none;" d="M49 28L50 29L49 28M65 28L66 29L65 28z"/>
<path style="fill:#9fb1f1; stroke:none;" d="M92 28L93 29L92 28M107 28L108 29L107 28z"/>
<path style="fill:#1936a9; stroke:none;" d="M123 28C124.585 33.5972 128.38 35.6923 134 36L134 35L123 28z"/>
<path style="fill:#687dd2; stroke:none;" d="M139 28L140 29L139 28z"/>
<path style="fill:#9fb1f1; stroke:none;" d="M154 28L155 29L154 28z"/>
<path style="fill:#183fd4; stroke:none;" d="M155 28L156 29L155 28z"/>
<path style="fill:#9fb1f1; stroke:none;" d="M11 29L12 30L11 29z"/>
<path style="fill:#1936a9; stroke:none;" d="M17 29C19.5509 33.7985 22.5964 35.7041 28 36L28 35L17 29z"/>
<path style="fill:#9fb1f1; stroke:none;" d="M18 29L19 30L18 29z"/>
<path style="fill:#687dd2; stroke:none;" d="M33 29L34 30L33 29M43 29L44 30L43 29M92 29L93 30L92 29M107 29L108 30L107 29M117 29L118 30L117 29z"/>
<path style="fill:#9fb1f1; stroke:none;" d="M124 29L125 30L124 29z"/>
<path style="fill:#1936a9; stroke:none;" d="M139 29L135 35L139 29z"/>
<path style="fill:#9fb1f1; stroke:none;" d="M157.667 29.3333L158.333 29.6667L157.667 29.3333z"/>
<path style="fill:#687dd2; stroke:none;" d="M159 29L160 30L159 29z"/>
<path style="fill:#1936a9; stroke:none;" d="M161 29L161 30C164.005 30.8995 167.311 34.9419 161.965 35.5347C157.881 35.9877 153.591 32.0547 149 32C152.811 33.7743 158.698 37.598 162.98 36.6628C170.057 35.117 166.164 29.399 161 29z"/>
<path style="fill:#687dd2; stroke:none;" d="M173 29L174 30L173 29z"/>
<path style="fill:#9fb1f1; stroke:none;" d="M32 30L33 31L32 30M43.3333 30.6667L43.6667 31.3333L43.3333 30.6667z"/>
<path style="fill:#1936a9; stroke:none;" d="M44 30L49 37L49 36L44 30z"/>
<path style="fill:#687dd2; stroke:none;" d="M50 30L51 31L50 30z"/>
<path style="fill:#9fb1f1; stroke:none;" d="M64 30L65 31L64 30M117.333 30.6667L117.667 31.3333L117.333 30.6667z"/>
<path style="fill:#687dd2; stroke:none;" d="M124 30L125 31L124 30M138 30L139 31L138 30z"/>
<path style="fill:#9fb1f1; stroke:none;" d="M163 30L164 31L163 30z"/>
<path style="fill:#687dd2; stroke:none;" d="M164 30L165 31L164 30M19 31L20 32L19 31M32 31L33 32L32 31z"/>
<path style="fill:#9fb1f1; stroke:none;" d="M51 31L52 32L51 31z"/>
<path style="fill:#687dd2; stroke:none;" d="M86 31L87 32L86 31M93 31L94 32L93 31M106 31L107 32L106 31z"/>
<path style="fill:#9fb1f1; stroke:none;" d="M125 31L126 32L125 31M137 31L138 32L137 31M149 31L149 32L156 32L149 31z"/>
<path style="fill:#1936a9; stroke:none;" d="M172 31L173 32L172 31z"/>
<path style="fill:#9fb1f1; stroke:none;" d="M12 32L13 33L12 32M20 32L21 33L20 32z"/>
<path style="fill:#687dd2; stroke:none;" d="M31 32L32 33L31 32z"/>
<path style="fill:#9fb1f1; stroke:none;" d="M52 32L53 33L52 32M62 32L63 33L62 32z"/>
<path style="fill:#183fd4; stroke:none;" d="M63 32L64 33L63 32z"/>
<path style="fill:#9fb1f1; stroke:none;" d="M86 32L87 33L86 32z"/>
<path style="fill:#1936a9; stroke:none;" d="M87 32L94 39L94 38L87 32z"/>
<path style="fill:#687dd2; stroke:none;" d="M94 32L95 33L94 32M105 32L106 33L105 32M118 32L119 33L118 32z"/>
<path style="fill:#9fb1f1; stroke:none;" d="M126 32L127 33L126 32M136 32L137 33L136 32M156 32L157 33L156 32z"/>
<path style="fill:#687dd2; stroke:none;" d="M166.333 32.6667L166.667 33.3333L166.333 32.6667M21 33L22 34L21 33z"/>
<path style="fill:#9fb1f1; stroke:none;" d="M29 33L30 34L29 33M44 33L45 34L44 33M53 33L54 34L53 33M61 33L62 34L61 33z"/>
<path style="fill:#687dd2; stroke:none;" d="M87 33L88 34L87 33M95 33L96 34L95 33z"/>
<path style="fill:#9fb1f1; stroke:none;" d="M96 33L97 34L96 33M103 33L104 34L103 33z"/>
<path style="fill:#183fd4; stroke:none;" d="M104 33L105 34L104 33z"/>
<path style="fill:#9fb1f1; stroke:none;" d="M118 33L119 34L118 33z"/>
<path style="fill:#687dd2; stroke:none;" d="M127 33L128 34L127 33z"/>
<path style="fill:#9fb1f1; stroke:none;" d="M135 33L136 34L135 33z"/>
<path style="fill:#687dd2; stroke:none;" d="M156 33L157 34L156 33z"/>
<path style="fill:#1936a9; stroke:none;" d="M172 33L165 39L165 40C168.804 39.2298 172.901 37.4325 172 33z"/>
<path style="fill:#687dd2; stroke:none;" d="M173 33L174 34L173 33z"/>
<path style="fill:#9fb1f1; stroke:none;" d="M13 34L14 35L13 34z"/>
<path style="fill:#687dd2; stroke:none;" d="M23 34L24 35L23 34z"/>
<path style="fill:#9fb1f1; stroke:none;" d="M24 34L24 35L28 35L24 34z"/>
<path style="fill:#1936a9; stroke:none;" d="M29 34L30 35L29 34z"/>
<path style="fill:#687dd2; stroke:none;" d="M45 34L46 35L45 34M55 34L56 35L55 34z"/>
<path style="fill:#9fb1f1; stroke:none;" d="M56 34L56 35L59 35L56 34z"/>
<path style="fill:#687dd2; stroke:none;" d="M59 34L60 35L59 34z"/>
<path style="fill:#9fb1f1; stroke:none;" d="M87 34L88 35L87 34z"/>
<path style="fill:#687dd2; stroke:none;" d="M97.6667 34.3333L98.3333 34.6667L97.6667 34.3333z"/>
<path style="fill:#9fb1f1; stroke:none;" d="M99.6667 34.3333L100.333 34.6667L99.6667 34.3333z"/>
<path style="fill:#687dd2; stroke:none;" d="M101.667 34.3333L102.333 34.6667L101.667 34.3333M119 34L120 35L119 34M129 34L130 35L129 34z"/>
<path style="fill:#9fb1f1; stroke:none;" d="M130 34L130 35L133 35L130 34z"/>
<path style="fill:#687dd2; stroke:none;" d="M133 34L134 35L133 34z"/>
<path style="fill:#9fb1f1; stroke:none;" d="M149 34L150 35L149 34z"/>
<path style="fill:#1936a9; stroke:none;" d="M150 34L158 40L158 39L150 34z"/>
<path style="fill:#9fb1f1; stroke:none;" d="M157 34L158 35L157 34M165 34L166 35L165 34M173 34L174 35L173 34z"/>
<path style="fill:#687dd2; stroke:none;" d="M14 35L15 36L14 35z"/>
<path style="fill:#9fb1f1; stroke:none;" d="M88 35L89 36L88 35z"/>
<path style="fill:#1936a9; stroke:none;" d="M98 35L98 36L102 36L98 35M121 35L121 37L123 37L121 35z"/>
<path style="fill:#687dd2; stroke:none;" d="M158 35L159 36L158 35z"/>
<path style="fill:#9fb1f1; stroke:none;" d="M159 35L160 36L159 35M163 35L164 36L163 35z"/>
<path style="fill:#687dd2; stroke:none;" d="M164 35L165 36L164 35M15 36L16 37L15 36z"/>
<path style="fill:#9fb1f1; stroke:none;" d="M46 36L47 37L46 36z"/>
<path style="fill:#687dd2; stroke:none;" d="M89 36L90 37L89 36z"/>
<path style="fill:#9fb1f1; stroke:none;" d="M150 36L151 37L150 36z"/>
<path style="fill:#687dd2; stroke:none;" d="M172 36L173 37L172 36M16 37L17 38L16 37z"/>
<path style="fill:#1936a9; stroke:none;" d="M49 37L49 38L55 40L55 39L49 37z"/>
<path style="fill:#687dd2; stroke:none;" d="M90 37L91 38L90 37z"/>
<path style="fill:#1936a9; stroke:none;" d="M107 37L108 38L107 37M123 37L125 39L125 37L123 37z"/>
<path style="fill:#687dd2; stroke:none;" d="M151 37L152 38L151 37M171 37L172 38L171 37M17 38L18 39L17 38z"/>
<path style="fill:#1936a9; stroke:none;" d="M32 38L33 39L32 38z"/>
<path style="fill:#687dd2; stroke:none;" d="M33 38L34 39L33 38M49 38L50 39L49 38z"/>
<path style="fill:#1936a9; stroke:none;" d="M59 39L59 40L65 39L59 39z"/>
<path style="fill:#9fb1f1; stroke:none;" d="M91 38L92 39L91 38z"/>
<path style="fill:#1936a9; stroke:none;" d="M106 38L107 39L106 38z"/>
<path style="fill:#687dd2; stroke:none;" d="M123 38L124 39L123 38z"/>
<path style="fill:#1936a9; stroke:none;" d="M134 39L134 40L139 39L134 39z"/>
<path style="fill:#9fb1f1; stroke:none;" d="M152 38L153 39L152 38z"/>
<path style="fill:#687dd2; stroke:none;" d="M170 38L171 39L170 38M19 39L20 40L19 39z"/>
<path style="fill:#1936a9; stroke:none;" d="M26 39L26 40L31 40L26 39z"/>
<path style="fill:#687dd2; stroke:none;" d="M31 39L32 40L31 39z"/>
<path style="fill:#9fb1f1; stroke:none;" d="M32 39L33 40L32 39M50 39L51 40L50 39z"/>
<path style="fill:#687dd2; stroke:none;" d="M51 39L52 40L51 39z"/>
<path style="fill:#1936a9; stroke:none;" d="M57 39L58 40L57 39z"/>
<path style="fill:#687dd2; stroke:none;" d="M63 39L64 40L63 39M93 39L94 40L93 39z"/>
<path style="fill:#1936a9; stroke:none;" d="M95 39L95 40L98 40L95 39M102 39L102 40L105 40L102 39z"/>
<path style="fill:#9fb1f1; stroke:none;" d="M106 39L107 40L106 39M124 39L125 40L124 39z"/>
<path style="fill:#687dd2; stroke:none;" d="M125 39L126 40L125 39z"/>
<path style="fill:#1936a9; stroke:none;" d="M126 39L126 40L129 40L126 39z"/>
<path style="fill:#687dd2; stroke:none;" d="M137 39L138 40L137 39z"/>
<path style="fill:#9fb1f1; stroke:none;" d="M153 39L154 40L153 39z"/>
<path style="fill:#687dd2; stroke:none;" d="M154 39L155 40L154 39z"/>
<path style="fill:#1936a9; stroke:none;" d="M159 39L160 40L159 39z"/>
<path style="fill:#687dd2; stroke:none;" d="M168 39L169 40L168 39z"/>
<path style="fill:#9fb1f1; stroke:none;" d="M169 39L170 40L169 39M21 40L22 41L21 40z"/>
<path style="fill:#687dd2; stroke:none;" d="M22.6667 40.3333L23.3333 40.6667L22.6667 40.3333M27.6667 40.3333L28.3333 40.6667L27.6667 40.3333z"/>
<path style="fill:#9fb1f1; stroke:none;" d="M29.6667 40.3333L30.3333 40.6667L29.6667 40.3333M34 40L34 41L41 41L34 40M53 40L54 41L53 40z"/>
<path style="fill:#687dd2; stroke:none;" d="M54.6667 40.3333L55.3333 40.6667L54.6667 40.3333M59.6667 40.3333L60.3333 40.6667L59.6667 40.3333z"/>
<path style="fill:#9fb1f1; stroke:none;" d="M61 40L62 41L61 40M76 40L76 41L83 41L76 40M95 40L96 41L95 40z"/>
<path style="fill:#687dd2; stroke:none;" d="M96.6667 40.3333L97.3333 40.6667L96.6667 40.3333M102.667 40.3333L103.333 40.6667L102.667 40.3333z"/>
<path style="fill:#9fb1f1; stroke:none;" d="M104 40L105 41L104 40M108 40L108 41L115 41L108 40M126.667 40.3333L127.333 40.6667L126.667 40.3333z"/>
<path style="fill:#687dd2; stroke:none;" d="M128.667 40.3333L129.333 40.6667L128.667 40.3333M133.667 40.3333L134.333 40.6667L133.667 40.3333z"/>
<path style="fill:#9fb1f1; stroke:none;" d="M135 40L136 41L135 40M156 40L157 41L156 40z"/>
<path style="fill:#687dd2; stroke:none;" d="M157 40L157 41L160 41L157 40M164.667 40.3333L165.333 40.6667L164.667 40.3333z"/>
<path style="fill:#9fb1f1; stroke:none;" d="M166 40L167 41L166 40z"/>
</svg>
