<svg width="307" height="24" viewBox="0 0 307 24" xmlns="http://www.w3.org/2000/svg">
    <g fill="#0B00DC" fill-rule="nonzero">
        <path d="M4.95 2.056c0-.19.072-.287.337-.347.497-.11 1.12-.136 1.433-.136 2.895 0 3.996 2.698 3.996 5.216 0 1.247-.435 2.342-1.066 3.055-.62.738-1.033.81-2.675.81-1.113 0-1.642-.1-1.81-.122-.17-.06-.214-.14-.214-.357V2.053v.003zM161.455 19.55c.078 2.496.377 3.285 1.148 3.518.594.158 1.24.19 1.49.19.152 0 .245.056.245.186 0 .173-.18.23-.532.23-1.704 0-2.889-.085-3.144-.085-.27 0-1.514.085-2.854.085-.293 0-.473-.025-.473-.23 0-.13.093-.187.23-.187.243 0 .777-.031 1.228-.189.731-.218.874-1.098.874-3.866l.05-17.406c0-1.168.068-1.508.314-1.508s.74.66 1.042.972c.457.508 4.867 5.415 9.432 10.423 2.945 3.212 6.172 6.923 7.127 7.923l-.348-15.434c-.028-1.972-.227-2.638-1.141-2.884-.535-.12-1.226-.145-1.456-.145-.23 0-.242-.104-.242-.218 0-.186.242-.218.59-.218 1.328 0 2.762.104 3.104.104.32 0 1.281-.104 2.503-.104.336 0 .535.032.535.218 0 .114-.115.218-.33.218-.14 0-.35 0-.705.085-.98.218-1.101.877-1.101 2.708l-.056 17.797c0 2.004-.081 2.156-.27 2.156-.237 0-.58-.335-2.178-1.941-.314-.303-4.58-4.784-7.721-8.255-3.44-3.771-6.792-7.618-7.75-8.716l.38 14.57.01.003zM131.878 9.528c0-4.749 0-5.588-.056-6.576-.06-1.026-.302-1.505-1.285-1.72-.236-.06-.734-.085-.998-.085-.121 0-.249-.06-.249-.199 0-.173.162-.24.476-.24 1.34 0 3.194.104 3.352.104.2 0 6.092 0 6.795-.04.557-.035 1.048-.083 1.284-.143.153-.019.259-.167.405-.167.093 0 .124.145.124.278 0 .208-.143.577-.246 1.42-.024.319-.083 1.65-.127 2.016-.04.155-.1.344-.211.344-.18 0-.259-.154-.259-.407 0-.202-.021-.72-.164-1.092-.2-.482-.507-.861-2.112-1.032-.507-.063-3.732-.097-4.052-.097-.121 0-.18.097-.18.312v8.381c0 .202.006.329.18.329.38 0 4.018 0 4.718-.089.7-.05 1.125-.107 1.383-.426.209-.24.342-.391.458-.391.087 0 .14.063.14.252 0 .174-.14.688-.243 1.701-.05.594-.128 1.723-.128 1.944 0 .23 0 .578-.192.578-.153 0-.221-.136-.221-.272 0-.306 0-.625-.115-1.01-.112-.41-.386-.943-1.543-1.063-.805-.104-3.731-.167-4.238-.167l-.2 2.9c0 1.032-.037 4.55 0 5.2.085 2.099.545 2.49 3.446 2.49.753 0 2.059 0 2.836-.331.765-.341 1.135-.956 1.35-2.203.05-.331.109-.442.27-.442.162 0 .162.243.162.442 0 .259-.242 2.326-.385 2.954-.2.78-.448.78-1.614.78-4.466 0-6.456-.174-7.32-.174-.057 0-.582.031-1.185.031-.585.029-1.279.054-1.705.054-.357 0-.478-.054-.478-.23 0-.102.052-.187.227-.187.258 0 .612-.06.886-.126.606-.13.74-.78.858-1.672.156-1.26.156-3.674.156-6.593V9.522v.006zm-19.169 10.225c.115 1.1.34 2.808 1.592 3.23.865.275 1.633.275 1.935.275.143 0 .236.041.236.146 0 .186-.249.271-.613.271-.65 0-3.868-.085-4.953-.177-.694-.05-.83-.154-.83-.3.357-.246.376-.766.316-1.31l-1.43-15.676-7.351 15.81c-.629 1.325-.716 1.6-.974 1.6-.199 0-.354-.307-.933-1.39-.755-1.508-3.333-6.759-3.467-7.068-.258-.53-3.592-7.82-3.918-8.643l-1.3 14.109c-.025.483-.025 1.022-.025 1.54 0 .451.326.833.774.927.492.13.943.161 1.12.161.118 0 .245.057.245.146 0 .217-.186.271-.544.271-1.098 0-2.528-.085-2.761-.085-.28 0-1.707.085-2.488.085-.29 0-.504-.054-.504-.271 0-.089.137-.146.302-.146.214 0 .46 0 .886-.088.977-.186 1.073-1.36 1.185-2.524L91.349.84c.065-.338.142-.552.317-.552.183 0 .304.12.46.454l9.068 19.114L109.9.775c.137-.272.233-.486.454-.486.22 0 .302.243.373.823l1.984 18.644-.003-.003zm-46.851-3.939c0-1.634-.292-2.3-.694-3.184-.19-.492-4.173-7.185-5.22-8.75-.744-1.127-1.472-1.89-2.019-2.257-.435-.306-1.008-.476-1.272-.476-.155 0-.298-.06-.298-.218 0-.113.115-.218.4-.218.573 0 2.778.105 2.936.105.19 0 1.334-.105 2.488-.105.33 0 .38.105.38.218 0 .114-.172.158-.436.278-.249.113-.37.306-.37.549 0 .357.121.723.37 1.174.485.883 4.917 8.725 5.464 9.59.557-1.266 4.313-7.911 4.916-8.915.39-.65.507-1.155.507-1.546 0-.436-.115-.767-.47-.855-.28-.095-.46-.161-.46-.319 0-.11.18-.177.48-.177.768 0 1.725.104 1.962.104.17 0 2.31-.104 2.867-.104.214 0 .376.067.376.177 0 .155-.15.262-.376.262-.317 0-.886.114-1.36.426-.59.353-.916.716-1.573 1.534-.976 1.224-5.124 8.365-5.66 9.681-.44 1.086-.44 2.03-.44 3.026v2.61c0 .505 0 1.78.083 3.042.072.89.336 1.54 1.213 1.673.413.066 1.07.126 1.334.126.18 0 .227.085.227.186 0 .142-.134.23-.463.23-1.642 0-3.511-.085-3.654-.085-.156 0-2.012.085-2.911.085-.317 0-.479-.053-.479-.23 0-.101.072-.186.249-.186.28 0 .625-.06.902-.126.578-.13.861-.78.914-1.673.084-1.26.084-2.537.084-3.042v-2.61h.003zM32.444 9.531c0-4.749 0-5.588-.062-6.576-.06-1.025-.293-1.505-1.272-1.72-.243-.06-.728-.085-1.014-.085-.109 0-.227-.06-.227-.199 0-.173.152-.24.473-.24 1.334 0 3.212.105 3.34.105.217 0 6.129 0 6.822-.041.563-.035 1.011-.082 1.247-.142.165-.02.286-.168.42-.168.1 0 .128.145.128.278 0 .208-.15.577-.25 1.42-.015.319-.077 1.65-.136 2.016-.037.155-.084.344-.205.344-.196 0-.23-.154-.23-.407 0-.202-.04-.72-.178-1.091-.227-.483-.525-.862-2.127-1.032-.491-.063-3.738-.098-4.067-.098-.097 0-.168.098-.168.312v8.382c0 .202.04.328.168.328.4 0 4.049 0 4.73-.089.715-.05 1.113-.107 1.393-.426.208-.24.33-.39.445-.39.077 0 .155.062.155.252 0 .173-.155.687-.249 1.7a27.138 27.138 0 0 0-.102 1.944c0 .23 0 .578-.221.578-.156 0-.193-.136-.193-.272 0-.306 0-.624-.121-1.01-.128-.41-.392-.943-1.54-1.063-.814-.104-3.756-.167-4.257-.167l-.214 2.9c0 1.032-.028 4.55 0 5.2.1 2.099.544 2.49 3.451 2.49.765 0 2.072 0 2.84-.331.786-.341 1.128-.956 1.35-2.203.049-.331.111-.442.248-.442.187 0 .187.243.187.442 0 .259-.227 2.326-.39 2.954-.21.78-.456.78-1.6.78-4.491 0-6.475-.174-7.343-.174-.043 0-.556.031-1.178.031-.579.029-1.266.054-1.723.054-.327 0-.47-.054-.47-.23 0-.101.069-.187.227-.187.293 0 .641-.06.893-.126.581-.13.75-.78.87-1.672.14-1.26.14-3.673.14-6.592V9.525l.01.006zM4.95 11.687c.615-.215 2.105-.215 2.484-.155.713.085 1.456.183 2.476.884 2.282 1.619 2.876 4.238 2.876 6.077 0 3.418-2.596 4.305-4.204 4.305-.526 0-1.798-.06-2.6-.442-.917-.464-.917-.89-1.017-2.386-.012-.448-.012-4.228-.012-6.567v-1.716H4.95zm-2.392 3.187c0 2.919 0 5.333-.133 6.592-.128.89-.274 1.54-.865 1.673a4.084 4.084 0 0 1-.886.126c-.18 0-.233.085-.233.186 0 .173.127.23.47.23.898 0 2.754-.085 2.897-.085.237 0 3.275.174 3.95.174 5.081 0 7.569-3.374 7.569-6.618 0-3.562-2.926-5.711-5.137-6.415 1.402-1.48 2.795-2.985 2.795-5.472 0-1.512-1.07-4.55-5.93-4.55-1.378 0-2.528.104-3.247.104-.143 0-2-.104-3.34-.104C.128.715 0 .78 0 .955c0 .138.112.198.22.198.278 0 .778.025 1.02.085.977.218 1.214.695 1.263 1.72.056.988.056 1.827.056 6.577v5.342-.003z"/>
        <ellipse cx="199.221" cy="12.144" rx="11.669" ry="11.856"/>
        <path d="M220.935 20.452c-2.892-2.632-3.607-6.081-3.607-8.953 0-2.026.684-5.566 3.336-8.258 1.789-1.815 4.5-3.238 9.09-3.238 1.191 0 2.861.092 4.323.363 1.132.211 2.086.395 3.041.454.327.032.389.152.389.332 0 .243-.09.606-.15 1.694-.059.998-.059 2.66-.09 3.115-.03.454-.09.634-.267.634-.208 0-.24-.211-.24-.634 0-1.18-.475-2.42-1.253-3.086-1.042-.909-3.337-1.723-5.961-1.723-3.965 0-5.812 1.18-6.857 2.209-2.177 2.117-2.684 4.809-2.684 7.895 0 5.778 4.382 11.07 10.76 11.07 2.236 0 3.993-.271 5.187-1.511.625-.666 1.014-1.998 1.104-2.54.059-.332.118-.455.298-.455.15 0 .209.211.209.454 0 .212-.358 2.843-.656 3.872-.18.575-.24.634-.775.877-1.19.483-3.458.695-5.364.695-4.472 0-7.482-1.12-9.836-3.266h.003zM257.742.006c6.708 0 11.714 4.295 11.714 11.342 0 7.046-4.708 12.37-11.891 12.37-8.167 0-11.566-6.444-11.566-11.888 0-4.9 3.518-11.827 11.743-11.827v.003zm.625 22.563c2.684 0 8.225-1.571 8.225-10.376 0-7.258-4.35-11.161-9.062-11.161-4.978 0-8.704 3.326-8.704 9.95 0 7.046 4.173 11.584 9.538 11.584l.003.003zM303.212 19.395c.119 1.088.327 2.783 1.611 3.206a6.392 6.392 0 0 0 1.938.271c.149 0 .239.032.239.151 0 .18-.267.272-.625.272-.656 0-3.875-.092-4.979-.18-.684-.06-.833-.151-.833-.303 0-.12.059-.18.208-.211.15-.032.18-.546.118-1.09l-1.43-15.607h-.09l-7.302 15.728c-.625 1.332-.715 1.603-.983 1.603-.208 0-.357-.303-.923-1.392-.775-1.483-3.337-6.715-3.486-7.018-.268-.546-3.608-7.804-3.934-8.621h-.118l-1.191 14.033c-.031.483-.031 1.029-.031 1.543 0 .455.326.846.774.937.507.12.955.152 1.132.152.118 0 .24.06.24.151 0 .212-.181.272-.539.272-1.104 0-2.534-.092-2.77-.092-.268 0-1.698.092-2.504.092-.298 0-.507-.06-.507-.272 0-.091.15-.151.299-.151.24 0 .448 0 .896-.092.982-.18 1.072-1.36 1.19-2.512l2.146-19.72c.031-.33.15-.545.327-.545.177 0 .298.12.448.454l9.12 19.026L300.417.486c.118-.271.24-.483.447-.483.209 0 .299.243.358.817l1.997 18.571-.007.004z"/>
    </g>
</svg>
