<svg width="278.5" height="41.1" xmlns="http://www.w3.org/2000/svg"><path fill="#B37B79" d="M1.3 1.6h4.6v10.8H6c.3-.5.7-1 1.2-1.4.5-.4 1-.8 1.5-1 .6-.3 1.1-.5 1.8-.7.6-.1 1.2-.2 1.8-.2 1.7 0 3.1.3 4.3.9 1.2.6 2.3 1.4 3.1 2.4.8 1 1.4 2.2 1.8 3.6.4 1.4.6 2.8.6 4.4 0 1.4-.2 2.8-.6 4.1-.4 1.3-.9 2.5-1.7 3.5-.7 1-1.7 1.8-2.8 2.4-1.1.6-2.5.9-4 .9-.7 0-1.4 0-2.1-.1-.7-.1-1.4-.3-2.1-.6-.7-.3-1.2-.6-1.8-1.1-.5-.4-1-1-1.3-1.7v2.9H1.3V1.6zm16.2 18.6c0-1-.1-1.9-.4-2.8-.2-.9-.6-1.7-1.1-2.4-.5-.7-1.1-1.3-1.8-1.7-.7-.4-1.6-.6-2.5-.6-2 0-3.4.7-4.4 2-1 1.4-1.5 3.2-1.5 5.4 0 1.1.1 2 .4 3 .3.9.6 1.7 1.2 2.3.5.7 1.1 1.2 1.9 1.5.7.4 1.6.6 2.5.6 1.1 0 2-.2 2.7-.7.7-.4 1.3-1 1.8-1.7s.8-1.5 1-2.4c.1-.7.2-1.6.2-2.5m27.7 1.2c0 .8.1 1.6.3 2.4.2.8.6 1.4 1 2 .5.6 1 1 1.8 1.4.7.3 1.5.5 2.5.5 1.4 0 2.5-.3 3.3-.9.8-.6 1.4-1.5 1.9-2.6h4.4c-.2 1.1-.7 2.2-1.3 3.1-.6.9-1.3 1.6-2.2 2.3-.8.6-1.8 1.1-2.8 1.4-1 .3-2.1.5-3.3.5-1.7 0-3.1-.3-4.4-.8-1.3-.5-2.4-1.3-3.2-2.3-.9-1-1.5-2.1-2-3.5-.4-1.4-.7-2.9-.7-4.5 0-1.5.2-2.9.7-4.3.5-1.3 1.2-2.5 2-3.5.9-1 1.9-1.8 3.2-2.4 1.2-.6 2.7-.9 4.2-.9 1.7 0 3.1.3 4.5 1 1.3.7 2.4 1.6 3.3 2.8.9 1.1 1.5 2.5 1.9 3.9.4 1.5.5 3 .3 4.6H45.2v-.2zM56 18.3c-.1-.7-.2-1.4-.5-2.1-.3-.7-.6-1.3-1.1-1.8-.4-.5-1-.9-1.6-1.2-.6-.3-1.4-.5-2.1-.5-.8 0-1.6.1-2.2.4-.7.3-1.2.7-1.7 1.2s-.9 1.1-1.1 1.8c-.3.7-.4 1.4-.5 2.2H56zm21.3-8.7h5.1l5.5 15.7h.1l5.3-15.7h4.9L90 31.8c-.4 1-.8 1.9-1.1 2.7-.4.9-.8 1.6-1.3 2.3-.5.7-1.2 1.2-2 1.6-.8.4-1.8.6-3 .6-1.1 0-2.2-.1-3.2-.2v-3.9c.4.1.7.1 1.1.2.4.1.7.1 1.1.1.5 0 1-.1 1.3-.2.4-.1.6-.3.9-.6l.6-.9c.2-.4.3-.8.4-1.2l.5-1.6-8-21.1zm36.7 0h5.1l5.5 15.7h.1L130 9.6h4.8l-8.2 22.2c-.4 1-.8 1.9-1.1 2.7-.4.9-.8 1.6-1.3 2.3-.5.7-1.2 1.2-2 1.6-.8.4-1.8.6-3 .6-1.1 0-2.2-.1-3.2-.2v-3.9c.4.1.7.1 1.1.2.4.1.7.1 1.1.1.5 0 1-.1 1.3-.2.4-.1.6-.3.9-.6l.6-.9c.2-.4.3-.8.4-1.2l.5-1.6L114 9.6zm48.6 21.7c-1.7 0-3.2-.3-4.5-.8-1.3-.6-2.4-1.3-3.3-2.3-.9-1-1.6-2.1-2.1-3.5s-.7-2.9-.7-4.5.2-3.1.7-4.4c.5-1.4 1.2-2.5 2.1-3.5.9-1 2-1.7 3.3-2.3 1.3-.6 2.8-.8 4.5-.8 1.7 0 3.2.3 4.5.8 1.3.6 2.4 1.3 3.3 2.3.9 1 1.6 2.1 2.1 3.5s.7 2.8.7 4.4c0 1.6-.2 3.1-.7 4.5-.5 1.4-1.2 2.5-2.1 3.5-.9 1-2 1.7-3.3 2.3-1.3.5-2.8.8-4.5.8m0-3.7c1 0 1.9-.2 2.7-.7.8-.4 1.4-1 1.9-1.7s.9-1.5 1.1-2.4c.2-.9.3-1.8.3-2.7 0-.9-.1-1.8-.3-2.7-.2-.9-.6-1.7-1.1-2.4-.5-.7-1.1-1.3-1.9-1.7-.8-.4-1.7-.7-2.7-.7-1 0-1.9.2-2.7.7-.8.4-1.4 1-1.9 1.7s-.9 1.5-1.1 2.4c-.2.9-.3 1.8-.3 2.7 0 .9.1 1.8.3 2.7.2.9.6 1.7 1.1 2.4.5.7 1.1 1.3 1.9 1.7.8.5 1.7.7 2.7.7m49.5 2c0 3.2-.9 5.5-2.7 7.1-1.8 1.6-4.3 2.3-7.7 2.3-1.1 0-2.1-.1-3.2-.3-1.1-.2-2.1-.6-2.9-1.1-.9-.5-1.6-1.2-2.2-2-.6-.8-1-1.9-1.1-3.1h4.6c.1.7.4 1.2.7 1.6.3.4.7.7 1.2 1 .4.2.9.4 1.5.4.5.1 1.1.1 1.7.1 1.9 0 3.2-.5 4.1-1.4.9-.9 1.3-2.3 1.3-4V27h-.1c-.7 1.2-1.5 2.1-2.7 2.7-1.1.7-2.3 1-3.6 1-1.7 0-3.1-.3-4.3-.9-1.2-.6-2.2-1.4-2.9-2.4-.8-1-1.3-2.2-1.7-3.5-.4-1.3-.5-2.8-.5-4.3 0-1.4.2-2.8.7-4 .4-1.3 1.1-2.4 1.9-3.4.8-1 1.8-1.7 3-2.3 1.2-.6 2.5-.9 4-.9 1.3 0 2.6.3 3.7.8 1.1.6 2 1.4 2.6 2.6h.1V9.5h4.6v20.1h-.1zM201.8 27c1 0 1.9-.2 2.6-.6.7-.4 1.3-1 1.8-1.7.4-.7.8-1.5 1-2.4.2-.9.3-1.8.3-2.7 0-.9-.1-1.8-.3-2.6-.2-.8-.6-1.6-1-2.2-.4-.7-1-1.2-1.8-1.5-.7-.4-1.6-.6-2.6-.6s-1.9.2-2.6.7c-.7.4-1.3 1-1.7 1.7-.4.7-.7 1.5-.9 2.4-.2.9-.3 1.8-.3 2.6 0 .9.1 1.7.3 2.5.2.8.6 1.6 1 2.2.4.7 1 1.2 1.7 1.6.7.4 1.5.6 2.5.6m30.6-25.4h4.6v29.1h-4.6zm43.7 29.1h-4.6v-2.9h-.1c-.6 1.1-1.4 1.9-2.5 2.5-1.1.6-2.3 1-3.4 1-2.8 0-4.8-.7-6-2.1-1.2-1.4-1.9-3.4-1.9-6.2V9.6h4.6v12.9c0 1.8.4 3.2 1.1 3.9.7.8 1.7 1.1 3 1.1 1 0 1.8-.1 2.4-.4.7-.3 1.2-.7 1.6-1.2.4-.5.7-1.1.9-1.8.2-.7.3-1.5.3-2.3V9.6h4.6v21.1z" class="st0"/></svg>