<svg width="160px" height="70px" viewBox="0 0 114 16" version="1.1" xmlns="http://www.w3.org/2000/svg" xmlns:xlink="http://www.w3.org/1999/xlink">
            <defs>
                <polygon id="path-1" points="0.00533358779 0.127066667 16.9665321 0.127066667 16.9665321 15.9999467 0.00533358779 15.9999467"></polygon>
                <polygon id="path-3" points="0.00773564356 0.0551842105 12.9725842 0.0551842105 12.9725842 14.9629474 0.00773564356 14.9629474"></polygon>
            </defs>
            <g id="Checkout01" stroke="none" stroke-width="1" fill="none" fill-rule="evenodd" transform="translate(-30.000000, -27.000000)">
                <g id="Page-1" transform="translate(30.000000, 27.000000)">
                    <path d="M15,11.5002251 C15,13.980344 12.6693064,16 9.80758535,16 L0,16 L0,1 L8.65389199,1 C11.5154806,1 13.8461742,3.01992074 13.8461742,5.49990732 C13.8461742,6.39991527 13.5462298,7.24008155 13.0155998,7.95990256 C14.2153773,8.7799451 15,10.0600535 15,11.5002251 Z M9.80758535,13.0001059 C10.7540324,13.0001059 11.5386551,12.3198704 11.5386551,11.5002251 C11.5386551,10.6800501 10.7540324,9.99994704 9.80758535,9.99994704 L3.43830283,9.99994704 L3.43830283,13.0001059 L9.80758535,13.0001059 Z M8.65389199,6.99992056 C9.59980931,6.99992056 10.3845645,6.31994987 10.3845645,5.49990732 C10.3845645,4.67999718 9.59980931,3.99989409 8.65389199,3.99989409 L3.46147734,3.99989409 L3.46147734,6.99992056 L8.65389199,6.99992056 Z" id="Fill-1" fill="#EE403D"></path>
                    <g id="Group-5" transform="translate(19.000000, 0.000000)">
                        <mask id="mask-2" fill="white">
                            <use xlink:href="#path-1"></use>
                        </mask>
                        <g id="Clip-4"></g>
                        <path d="M8.48573817,15.9999467 C3.80463893,15.9999467 0.00533358779,12.44408 0.00533358779,8.06354667 C0.00533358779,3.68288 3.80463893,0.127013333 8.48573817,0.127013333 C13.1672267,0.127013333 16.9665321,3.68288 16.9665321,8.06354667 C16.9665321,12.44408 13.1672267,15.9999467 8.48573817,15.9999467 M3.39754733,8.06354667 C3.39754733,10.6875467 5.68151679,12.8254133 8.48573817,12.8254133 C11.2900893,12.8254133 13.5741885,10.6875467 13.5741885,8.06354667 C13.5741885,5.43888 11.2900893,3.30154667 8.48573817,3.30154667 C5.68151679,3.30154667 3.39754733,5.43888 3.39754733,8.06354667" id="Fill-3" fill="#EE403D" mask="url(#mask-2)"></path>
                    </g>
                    <polygon id="Fill-6" fill="#EE403D" points="38 1 41.9959457 1 46.4887289 7.35989726 51.0040543 1 55 1 48.1821216 10.6198113 48.1821216 16 44.7954656 16 44.7954656 10.6198113"></polygon>
                    <polygon id="Fill-8" fill="#EE403D" points="60 1 60.9229995 1 71.5388181 9.76005084 71.5388181 1 75 1 75 16 74.054091 16 63.4618441 7.24008155 63.4618441 16 60 16"></polygon>
                    <polygon id="Fill-10" fill="#EE403D" points="82 1 95 1 95 3.99989409 85.5456148 3.99989409 85.5456148 7.23001968 92.6364376 7.23001968 92.6364376 10.2303109 85.5456148 10.2303109 85.5456148 13.0001059 95 13.0001059 95 16 82 16"></polygon>
                    <g id="Group-14" transform="translate(101.000000, 1.000000)">
                        <mask id="mask-4" fill="white">
                            <use xlink:href="#path-3"></use>
                        </mask>
                        <g id="Clip-13"></g>
                        <path d="M12.972597,14.9629474 L8.95752772,14.9629474 L6.01901287,10.9874211 L3.37241881,10.9874211 L3.37241881,14.9629474 L0.00773564356,14.9629474 L0.00773564356,0.0551842105 L6.17604257,0.0551842105 C9.58564653,0.0551842105 12.3443495,2.49978947 12.3443495,5.52123684 C12.3443495,7.48913158 11.1782109,9.19847368 9.42848812,10.1726842 L12.972597,14.9629474 Z M6.17604257,8.00597368 C7.72381485,8.00597368 8.97979505,6.89281579 8.97979505,5.52123684 C8.97979505,4.14978947 7.72381485,3.03663158 6.17604257,3.03663158 L3.37241881,3.03663158 L3.37241881,8.00597368 L6.17604257,8.00597368 Z" id="Fill-12" fill="#EE403D" mask="url(#mask-4)"></path>
                    </g>
                </g>
            </g>
        </svg>