<?xml version="1.0" standalone="yes"?>
<svg xmlns="http://www.w3.org/2000/svg" width="727" height="254">
<path style="fill:#ffffff; stroke:none;" d="M0 0L0 1L39 1C28.726 -3.31113 11.1724 0 0 0z"/>
<path style="fill:#010101; stroke:none;" d="M0 1L0 246C12.3045 246.034 24.6326 247 37 247C91.1688 247 161.953 257.738 193.135 201C197.442 193.162 200.804 183.872 202 175L203 175C203.764 267.277 368.904 274.801 389 190L390 190C392.911 209.42 410.817 226.078 427 235.279C464.038 256.337 507.242 253.027 548 253C553.878 221.801 562.737 186.726 563 155L564 155C564 184.112 565.003 212.818 590 232.482C619.985 256.07 679.318 254.743 706.961 227.91C719.927 215.323 725.703 197.63 726.911 180C729.348 144.4 731.071 100.205 699 76.9267C657.568 46.8537 573.749 61.5055 566 119C548.643 113.726 528.926 112.867 511 109.92C505.942 109.088 495.166 105.381 490.434 107.618C487.127 109.181 487.26 115.903 486.754 119C485.082 129.226 479.234 145.753 481.407 155.852C482.923 162.895 497.531 157.454 500.883 163.317C504.842 170.243 497.345 188.971 497 197C482.489 192.411 464.915 193.787 454.942 179.985C449.65 172.662 450.519 162.49 451.729 154C454.35 135.609 455.952 115.721 461.671 98C464.105 90.4552 466.754 81.6407 474.015 77.3665C482.427 72.4142 493.752 73.5809 503 74.8696C524.731 77.8977 544.802 86.096 566 91C569.822 78.421 570.809 64.0304 572.728 51C573.263 47.3702 575.884 39.8156 573.883 36.51C571.858 33.166 564.464 32.1543 561 31C548.563 26.8551 535.853 23.5703 523 21C479.483 12.2977 426.894 15.9531 404.37 61C398.013 73.7148 393.818 88.9238 392 103L391 103C389.641 37.171 308.065 19.1302 257 36.0008C233.15 43.8801 207.342 65.1726 205 92C198.831 71.3209 198.341 52.1561 184.497 34C161.75 4.16907 123.702 0 89 0C59.2743 0 29.7078 1 0 1z"/>
<path style="fill:#ffffff; stroke:none;" d="M113 0L113 1C163.056 1.13811 203.587 42.0748 204 92L205 92C208.957 65.2041 233.525 44.0866 258 36.0008C309.215 19.0806 388.216 38.336 391 103L392 103C394.809 88.5167 398.207 73.0017 405.439 60C429.423 16.8789 478.456 12.2924 522 21C535.207 23.6411 548.222 27.0741 561 31.3333C564.559 32.5195 571.915 33.531 573.686 37.2778C575.432 40.9723 573.035 48.1135 572.411 52C570.336 64.915 569.061 78.289 566 91C545.36 84.2841 524.549 77.8011 503 74.7292C493.716 73.4056 481.417 72.3165 473.04 77.3665C465.859 81.6957 463.276 91.4485 461.036 99C455.828 116.563 454.171 135.899 451.579 154C450.357 162.539 449.559 173.668 454.942 180.961C464.451 193.842 482.91 193.529 497 197C497.66 188.655 499.377 180.26 500.753 172C501.191 169.372 502.722 164.987 500.958 162.6C497.146 157.444 483.982 162.714 481.773 155.852C480.11 150.685 483.364 141.301 484.247 136C485.344 129.415 484.848 113.385 489.742 108.618C493.185 105.263 504.692 109.05 509 109.754C527.855 112.836 547.433 114.528 566 119C582.294 40.2663 725.297 44.0816 726 129L727 129L727 55L726 55C716.665 76.2235 682.086 72.4598 684.188 47C686.088 23.9937 719.318 19.5014 726 42L727 42L727 0L113 0z"/>
<path style="fill:#010101; stroke:none;" d="M699 27.5332C672.56 33.9595 684.633 75.4042 711 69.3194C738.973 62.864 727.338 20.6454 699 27.5332z"/>
<path style="fill:#ffffff; stroke:none;" d="M704 32.5077C683.588 35.3663 687.737 67.0438 708 63.6667C727.664 60.3894 723.515 29.7747 704 32.5077z"/>
<path style="fill:#010101; stroke:none;" d="M698 39L698 57L704 57L704 52L707 57L713 57C710.227 44.4143 713.241 39 698 39z"/>
<path style="fill:#ffffff; stroke:none;" d="M704 43L704 48L707 48L706 43L704 43M72.6034 60.0278C69.7837 62.261 71 68.8492 71 72L71 105L71 163C71 169.381 68.7635 180.911 71.6034 186.682C73.4853 190.507 81.529 189 85 189C97.1505 189 113.568 189.587 123.815 181.892C131.632 176.022 133.782 163.143 134 154C134.431 135.884 134.834 118.13 134.039 100C133.593 89.8324 133.567 77.6334 127.2 69.0432C118.651 57.5104 99.6317 59 87 59C83.2687 59 75.6983 57.5766 72.6034 60.0278M288 84.439C260.528 88.7298 264 115.149 264 137C264 151.749 259.479 179.127 273.043 189.362C278.699 193.63 287.129 194.442 294 194.91C299.309 195.272 304.76 194.521 310 193.704C331.244 190.388 330 165.899 330 149C330 133.876 334.161 104.955 324.297 92.3009C316.966 82.8958 298.671 82.7724 288 84.439M637 110.44C616.921 113.666 618.001 134.631 618 151C617.999 163.295 615.143 186.053 624.532 195.606C631.334 202.527 646.171 201.982 655 200.56C674.118 197.482 672 177.147 672 162C672 149.581 675.659 126.679 667.297 116.329C661.112 108.674 645.765 109.031 637 110.44M563 155L548 253L538 253L538 254L727 254L727 183L726 183C725.472 246.771 634.592 266.774 591 232.482C573.833 218.978 566.188 200.197 564.17 179C563.455 171.49 565.933 161.99 563 155M202 175C200.228 183.564 197.358 192.317 193.135 200C156.528 266.609 62.2865 246.041 0 246L0 254L502 254L502 253C460.516 253 401.036 236.463 390 190L389 190C368.12 251.72 278.426 267.261 230 227.535C218.878 218.412 210.718 205.541 206.079 192C204.199 186.514 204.257 180.232 202 175z"/>
</svg>
