<svg xmlns="http://www.w3.org/2000/svg" width="170" height="37" viewBox="0 0 170 37">
    <path fill="#231F20" fill-rule="nonzero" d="M30.341 0l.897 11.168h-.897c-.904-2.783-2.074-4.88-3.507-6.289-2.066-2.035-4.72-3.052-7.963-3.052-4.422 0-7.784 1.783-10.089 5.349-1.929 3.009-2.893 6.592-2.893 10.75 0 3.375.64 6.454 1.92 9.237 1.28 2.783 2.958 4.823 5.032 6.119 2.074 1.296 4.203 1.944 6.388 1.944 1.28 0 2.518-.166 3.713-.496a14.655 14.655 0 0 0 3.456-1.461V23.04c0-1.774-.132-2.935-.397-3.483a2.706 2.706 0 0 0-1.229-1.253c-.554-.287-1.532-.43-2.931-.43v-.992h13.442v.992h-.64c-1.332 0-2.245.452-2.74 1.357-.341.643-.512 1.913-.512 3.81v10.828c-1.963 1.078-3.9 1.87-5.812 2.374-1.912.505-4.037.757-6.376.757-6.708 0-11.803-2.192-15.286-6.575C1.306 27.137 0 23.345 0 19.048c0-3.114.734-6.097 2.202-8.95 1.741-3.392 4.13-6.001 7.17-7.828C11.914.757 14.918 0 18.383 0c1.263 0 2.411.104 3.444.313 1.033.209 2.496.67 4.391 1.383.956.365 1.596.548 1.92.548.325 0 .602-.152.833-.457.23-.304.37-.9.422-1.787h.947zm29.8 35.23v.966H44.907v-.966h1.258c1.469 0 2.535-.426 3.2-1.279.42-.557.629-1.897.629-4.02V7.069c0-1.792-.114-2.975-.34-3.55-.176-.434-.534-.808-1.076-1.122a4.989 4.989 0 0 0-2.413-.626h-1.258V.804h15.236v.966h-1.285c-1.451 0-2.51.426-3.173 1.279-.438.557-.656 1.897-.656 4.02v22.863c0 1.792.114 2.975.34 3.55.176.434.543.808 1.102 1.122a4.841 4.841 0 0 0 2.387.626h1.285zM98.227.804L75.592 34.055h14.124c2.168 0 3.831-.487 4.991-1.461 1.16-.975 2.19-2.95 3.087-5.925l.838.157-1.626 9.37H68.962v-.966l22.1-32.312H80.038c-1.83 0-3.154.205-3.976.614-.821.409-1.448 1-1.88 1.775-.431.774-.825 2.222-1.18 4.345h-.966l.711-8.848h25.479zm26.066 34.426v.966h-15.235v-.966h1.258c1.469 0 2.535-.426 3.2-1.279.42-.557.629-1.897.629-4.02V7.069c0-1.792-.114-2.975-.34-3.55-.176-.434-.534-.808-1.076-1.122a4.989 4.989 0 0 0-2.413-.626h-1.258V.804h15.235v.966h-1.284c-1.452 0-2.51.426-3.174 1.279-.437.557-.655 1.897-.655 4.02v22.863c0 1.792.114 2.975.34 3.55.176.434.543.808 1.102 1.122a4.841 4.841 0 0 0 2.387.626h1.284zm32.413-10.882h-13.448l-2.357 5.585c-.58 1.374-.87 2.4-.87 3.079 0 .54.251 1.013.755 1.422.504.409 1.593.674 3.266.796v.966h-10.938v-.966c1.452-.26 2.391-.6 2.818-1.018.87-.835 1.836-2.531 2.895-5.088L151.044 0h.897l12.09 29.437c.974 2.366 1.858 3.901 2.652 4.606.794.704 1.9 1.1 3.317 1.187v.966h-13.704v-.966c1.383-.07 2.318-.304 2.804-.705.487-.4.73-.887.73-1.46 0-.766-.341-1.976-1.024-3.628l-2.1-5.09zm-.337-1.826L150.43 8.043l-6.091 14.479h12.028z"/>
</svg>
