<svg width="668" height="139" viewBox="0 0 668 139" fill="none" xmlns="http://www.w3.org/2000/svg">
<path d="M82.8243 3.1105H42.0669V135.28H64.9138V94.3083H82.8243C112.255 94.3083 131.807 75.6138 131.807 47.1075C131.814 19.5379 113.349 3.1105 82.8243 3.1105ZM81.5434 72.9676H64.9138V24.4438H81.5434C100.188 24.4438 108.046 31.81 108.046 48.4232C108.053 65.2297 100.008 72.9676 81.5434 72.9676Z" fill="black"/>
<path d="M22.8468 3.1105H0V135.28H22.8468V3.1105Z" fill="black"/>
<path d="M142.78 135.28H227.583V113.947H165.627V77.8809H223.014V56.5403H165.627V24.4438H227.583V3.1105H142.78V135.28Z" fill="black"/>
<path d="M428.456 3.1105L390.893 57.6998L353.331 3.1105H341.091H312.761L266.88 57.7296V3.1105H244.033V135.28H266.88V91.9594L281.833 74.0529L325.368 135.28H354.065L296.505 56.4808L332.341 13.5839L379.654 79.4716V135.28H402.5V79.1743L456.973 3.1105H428.456Z" fill="black"/>
<path d="M509.942 0.278473C472.106 0.278473 443.042 30.3011 443.042 69.199C443.042 108.097 472.106 138.12 509.942 138.12C547.597 138.12 576.654 108.097 576.654 69.199C576.661 30.3011 547.597 0.278473 509.942 0.278473ZM509.942 116.4C484.9 116.4 466.81 96.1963 466.81 69.199C466.81 42.2017 484.907 21.9982 509.942 21.9982C534.803 21.9982 552.894 42.2017 552.894 69.199C552.901 96.1963 534.803 116.4 509.942 116.4Z" fill="black"/>
<path d="M613.246 113.947V3.1105H590.399V135.28H667.531V113.947H613.246Z" fill="black"/>
</svg>
