<svg width="72" height="25" fill="none" xmlns="http://www.w3.org/2000/svg"><path fill-rule="evenodd" clip-rule="evenodd" d="M24.18 4.234c.411 1.215.148 2.493-.4 3.626-1.386 2.874-4.073 5.047-6.859 6.567-2.349 1.267-4.911 2.087-7.513 2.694l-.034.23c-.061.43-.126.858-.19 1.287-.217 1.44-.433 2.875-.538 4.331-.056.784-.939 1.412-1.58 1.725-.268.137-1.696.67-1.64-.105.118-1.508.342-2.993.566-4.481.08-.527.16-1.054.234-1.583.083-.58.163-1.16.244-1.74.198-1.419.395-2.837.614-4.253.202-1.3.444-2.591.685-3.883.117-.623.233-1.246.345-1.87l.038-.211c.242-1.337.487-2.695 1-3.96a26.147 26.147 0 00-7.51 1.988C1.31 4.744.029 5.274 0 4.49c-.025-.726.995-1.458 1.58-1.719A31.839 31.839 0 0112.087.088c3.022-.222 6.391-.103 9.142 1.296 1.238.631 2.487 1.503 2.95 2.85zm-4.654 6.272c.708-.784 1.39-1.724 1.611-2.932.213-1.144-.336-2.33-1.28-3.026-2.257-1.673-5.125-2.123-7.897-2.12a28.282 28.282 0 00-.714 3.254c-.095.525-.193 1.05-.29 1.575a118.133 118.133 0 00-.715 4.098c-.162 1.072-.313 2.147-.464 3.22l-.062.443a34.903 34.903 0 002.908-.718c1.592-.479 2.857-.943 4.239-1.711l.136-.077c.09-.049.18-.102.266-.157l.096-.062c.128-.082.256-.165.384-.251l.068-.047c.109-.076.218-.151.326-.23.04-.034.295-.23.295-.23.208-.17.414-.348.613-.531l.16-.157c.109-.112.218-.224.32-.34zm50.81 3.286c-.243.08-1.637.482-1.628-.066.006-.309 0-.387-.006-.45-.008-.097-.012-.155.035-.96.023-1.046 3.09-1.82 3.19-1.02.066.524.041.748.006 1.065a9.369 9.369 0 00-.035.347c-.052.67-.644.83-1.224.987-.115.031-.23.062-.339.097zm-16.731 5.607l-.07.023s-.175.046-.225.055l-.109.014c.041-.007-.057-.004-.133-.002-.03.002-.058.002-.07.002a2.119 2.119 0 01-.941-.203c-.748-.281-1.405-.77-2.03-1.255-.19-.148-.38-.299-.568-.45-1.103-.879-2.2-1.753-3.636-2.048-.961-.194-1.947-.028-2.86.292-.825.29-1.453.737-2.106 1.203-.154.11-.308.22-.467.329a.314.314 0 00-.03.019c-.61.418-.902.329-1.106.218a1.043 1.043 0 01-.42-.659c-.166-.785.07-1.62.287-2.386l.061-.22c.213-.775-.664-.715-1.17-.538-.7.243-1.718.855-1.922 1.617l-.03.11c-.26.935-.532 1.921-.428 2.894.14 1.269 1.22 1.858 2.449 1.725 1.414-.157 2.632-1.037 3.747-1.846a2.24 2.24 0 011.306-.42c.103.01.204.02.304.036.33.08.649.195.953.34.398.195.778.423 1.136.683.428.3.836.628 1.243.956.274.22.547.44.827.65 1.588 1.205 3.299 1.691 5.255 1.01.742-.258 1.658-.85 1.922-1.617.264-.769-.71-.69-1.17-.532zM65.19 13.25c.373-.011.606-.018 1.12-.006.737.015 1.297.511.876 1.061-.5.69-1.022 1.037-1.73 1.194-.396.084-.518.098-3.937.069-.298-.003-.595 0-.89.005h-.001c-.226.003-.452.006-.678.006.038.263.083.523.142.773.118.535.29 1.057.513 1.558.178.377.487.911.712 1.126.18.177.381.33.6.456.099.058.2.11.303.157a.866.866 0 01.094.027c.07.022.159.049.179.049.11.02.222.037.336.048.018-.015.3-.015.338-.015h.032c.074-.015.149-.029.222-.046l.097-.022.035-.01c.346-.11 1.671-.467 1.601.299-.06.729-1.154 1.307-1.761 1.5-1.514.48-3.502.833-4.835-.29-.95-.8-1.449-1.914-1.722-3.09a16.593 16.593 0 01-.364-2.353c-1.151.08-2.301.185-3.462.333-.722.09-1.009-.384-.59-.965a3.495 3.495 0 012.241-1.315 55.485 55.485 0 011.745-.19c.108-1.73.708-3.293 2.11-4.533.584-.516 1.55-1.011 2.383-.866.833.146.178.96-.088 1.264-.882 1.023-1.08 2.564-1.042 3.903a106.91 106.91 0 013.9-.099c.782-.006 1.202-.019 1.52-.028zm6.792 1.926c-.082-1.386-3.185-.14-3.212 1.642-.073 1.703-.202 2.861-.373 4.399l-.007.057c-.097.863 1.34.289 1.554.174.675-.364 1.412-.975 1.569-1.852l.082-.451c.247-1.34.47-2.559.387-3.969zM20.666 19.96s1.582 2.248 11.933-1.805c.668-.262 1.836-.018 1.65.766-.164.703-1.288 1.233-2.03 1.537-2.446 1.005-5.06 1.747-7.705 2.015l-.16.016c-2.042.21-4.794.493-6.426-.957-1.015-.903-.92-2.416-.39-3.554a8.732 8.732 0 013.336-3.68c2.218-1.389 5.054-2.348 7.71-1.834.945.184 1.975.566 2.226 1.584.356 1.444-1.052 2.848-2.173 3.54-2.115 1.308-5.438 2.078-7.97 2.372zm3.681-5.407c-3.428.88-4.11 3.218-4.027 3.48.047.158 6.812-.538 7.66-2.154.54-1.216-.164-2.214-3.633-1.326z" fill="#D50057"/></svg>