<?xml version="1.0" encoding="utf-8"?>
<!-- Generator: Adobe Illustrator 23.1.0, SVG Export Plug-In . SVG Version: 6.00 Build 0)  -->
<svg version="1.1" id="Layer_1" xmlns="http://www.w3.org/2000/svg" xmlns:xlink="http://www.w3.org/1999/xlink" x="0px" y="0px"
	 viewBox="0 0 1061.1 227.4" style="enable-background:new 0 0 1061.1 227.4;" xml:space="preserve">
<g>
	<path d="M254.3,169.2l73.8-79h-73.8V59.5H374v30.7l-73.8,79H374v30.5H254.3V169.2z"/>
	<path d="M383.9,28.3h34.6v171.4h-34.6V28.3z"/>
	<path d="M428.3,133V59.5h34.3v64.8c0,29.6,4.4,45,30.5,45c19.2,0,30.7-12.1,30.7-32.1V59.5h34.3v140.2h-34.3v-11.3
		c-9.3,8-22.5,12.6-37.9,12.6C444,201,428.3,174.4,428.3,133z"/>
	<path d="M569.7,186.2h11.8v13.4h-11.8V186.2z"/>
	<path d="M590,133.3c0-38.1,30.5-68.9,68.6-68.9c20.6,0,39,9.1,51.6,23.3L700,94.8c-10.2-11.3-25-18.4-41.4-18.4
		c-31,0-56,25.2-56,56.8c0,31.6,25,56.5,56,56.5c18.4,0,34.6-8.5,44.7-22l10.2,7.1c-12.6,16.5-32.4,26.9-54.9,26.9
		C620.5,201.9,590,171.4,590,133.3z"/>
	<path d="M710.1,133.3c0-38.1,30.5-68.9,68.6-68.9s68.9,30.7,68.9,68.9c0,38.1-30.7,68.6-68.9,68.6S710.1,171.4,710.1,133.3z
		 M835,133.3c0-31.6-25-56.8-56.3-56.8c-31,0-56,25.2-56,56.8s25,56.5,56,56.5C810,189.8,835,164.8,835,133.3z"/>
	<path d="M859,67.1h12.1V77c11.8-8.5,25.5-12.6,44.2-12.6c15.4,0,31.3,7.4,38.4,21.1c12.3-15.1,28.5-21.1,50.2-21.1
		c23.6,0,46.1,12.4,46.1,59.8v75.5h-12.1v-63.4c0-39.2-5.5-59.8-37.6-59.8c-24.7,0-39,13.2-39,38.1v85.1h-12.1v-63.4
		c0-39.2-5.5-59.8-36.8-59.8c-26.9,0-41.4,14.5-41.4,42.8v80.4h-12.1V67.1H859z"/>
	<path d="M179.7,58.3c-40.9,0-73.5,31.8-73.5,72.2c0,39.8,32.7,72.4,73.5,72.4c40.9,0,73.5-32.7,73.5-72.4
		C253.2,90.1,220.6,58.3,179.7,58.3z M142.7,130.6c0-20.4,16.6-37,37-37s37,16.6,37,37s-16.6,37-37,37S142.7,151,142.7,130.6z"/>
	<path d="M72.7,142V91.2h31.6V68.8l0,0v-9.5h-2.9h-4.9H72.7V28.2l0,0l0,0h-2.1h-5H38.2v31.1H21.5v31.8h16.7v50.8
		c0,47.2,26.6,58.5,65,58.5h7.4v-33.5C78.7,166.7,72.7,160.4,72.7,142z"/>
</g>
</svg>
