<svg xmlns="http://www.w3.org/2000/svg" width="153" height="40" viewBox="0 0 153 40">
    <g fill="#030304" fill-rule="nonzero">
        <path d="M88.12.3c-1.93 0-2.88 5.204-2.884 10.097l-.015 19.134c0 4.595 1.203 10.09 2.872 10.09 1.67 0 2.887-5.486 2.893-10.09V10.403C90.998 7.774 90.051.301 88.12.301zM112.04 17.36c-2.918-1.12-4.672-2.07-5.814-3.137a5.504 5.504 0 0 1-.109-8.088c.939-.902 2.659-1.985 5.504-1.9h1.035c2.857.024 6.069.02 7.106-.957.662-.622.208-1.287-.033-1.534C118.602.602 114.887 0 111.802 0c-7.384 0-12.554 4.328-12.554 10.526a8.974 8.974 0 0 0 2.73 6.617c1.655 1.666 4.037 3.074 7.499 4.427 5.2 1.952 7.218 4.072 7.233 7.57 0 4.024-3.08 6.523-8.015 6.523a17.089 17.089 0 0 1-8.46-2.274.388.388 0 0 0-.367 0 .262.262 0 0 0-.079.076.511.511 0 0 0-.078.397c1.023 5.555 5.826 6.057 9.098 6.057 3.67 0 7.287-1.143 9.72-3.414 2.151-2 3.364-4.812 3.342-7.75 0-2.788-.803-5.035-2.46-6.866-1.561-1.718-3.901-3.155-7.372-4.53zM76.872 1.13a1.1 1.1 0 0 0-.686-.6c-3.47-1.014-5.774 10.065-5.774 10.065-1.14 4.849-4.719 20.752-4.782 20.752-.286 0-3.7-14.767-5.534-21.392C58.68 4.839 56.331.28 54.846.28c-1.487 0-3.835 4.56-5.252 9.672-1.835 6.616-4.713 18.496-5.432 21.113a.087.087 0 0 1-.168 0c-.535-2.193-3.576-15.618-4.716-20.467 0 0-2.3-11.08-5.774-10.066a1.1 1.1 0 0 0-.686.602c-.68 1.504-.418 4.764.253 7.82.42 1.936 5.897 30.61 10.613 30.625 1.877 0 4.247-4.971 5.525-9.648 0 0 5.212-20.782 5.636-20.782.358 0 5.636 20.782 5.636 20.782 1.278 4.677 3.648 9.648 5.525 9.648 4.713 0 10.19-28.689 10.614-30.626.673-3.058.935-6.33.252-7.822zM14.65.33C6.168.33 0 .903 0 2.723c0 2.12 3.805 2.213 6.156 2.472 2.352.259 5.667 3.783 5.573 9.386.124 5.907 0 14.894 0 14.894 0 4.887 1.01 10.084 2.879 10.096h.102c1.867 0 2.875-5.21 2.878-10.096 0 0-.13-8.99-.015-14.897-.096-5.6 3.215-9.124 5.585-9.383 2.37-.259 6.141-.352 6.141-2.472C29.3.902 23.134.33 14.65.33zM138.141.33c-8.48 0-14.65.575-14.65 2.407 0 2.12 3.805 2.213 6.157 2.472 2.352.259 5.666 3.783 5.58 9.386.11 5.892-.016 14.879-.016 14.879 0 4.887 1.01 10.084 2.878 10.096h.102c1.868 0 2.876-5.21 2.879-10.096 0 0-.133-8.99-.015-14.897-.088-5.603 3.224-9.127 5.579-9.386 2.354-.259 6.147-.349 6.147-2.47 0-1.819-6.16-2.39-14.64-2.39z"/>
    </g>
</svg>
